<svg height="50px" viewBox="0 0 480 480" width="50px" xmlns="http://www.w3.org/2000/svg"><path d="m240 40c-110.457031 0-200 89.542969-200 200s89.542969 200 200 200 200-89.542969 200-200c-.125-110.40625-89.59375-199.875-200-200zm-32 16c0-4.417969 3.582031-8 8-8h48c4.417969 0 8 3.582031 8 8v32c0 2.121094-.84375 4.15625-2.34375 5.65625l-24 24c-3.125 3.121094-8.1875 3.121094-11.3125 0l-24-24c-1.5-1.5-2.34375-3.535156-2.34375-5.65625zm-90.34375 189.65625-24 24c-1.5 1.5-3.535156 2.34375-5.65625 2.34375h-32c-4.417969 0-8-3.582031-8-8v-48c0-4.417969 3.582031-8 8-8h32c2.121094 0 4.15625.84375 5.65625 2.34375l24 24c3.121094 3.125 3.121094 8.1875 0 11.3125zm154.34375 178.34375c0 4.417969-3.582031 8-8 8h-48c-4.417969 0-8-3.582031-8-8v-32c0-2.121094.84375-4.15625 2.34375-5.65625l24-24c3.125-3.121094 8.1875-3.121094 11.3125 0l24 24c1.5 1.5 2.34375 3.535156 2.34375 5.65625zm72-88c0 4.417969-3.582031 8-8 8h-64c-4.417969 0-8-3.582031-8-8v-56h-48v56c0 4.417969-3.582031 8-8 8h-64c-4.417969 0-8-3.582031-8-8v-192c0-4.417969 3.582031-8 8-8h64c4.417969 0 8 3.582031 8 8v56h48v-56c0-4.417969 3.582031-8 8-8h64c4.417969 0 8 3.582031 8 8zm48-128h32c4.417969 0 8 3.582031 8 8v48c0 4.417969-3.582031 8-8 8h-32c-2.121094 0-4.15625-.84375-5.65625-2.34375l-24-24c-3.121094-3.125-3.121094-8.1875 0-11.3125l24-24c1.5-1.5 3.535156-2.34375 5.65625-2.34375zm0 0" fill="#64c37d"/><path d="m240 16c-123.710938 0-224 100.289062-224 224s100.289062 224 224 224 224-100.289062 224-224c-.140625-123.652344-100.347656-223.859375-224-224zm0 440c-119.292969 0-216-96.707031-216-216s96.707031-216 216-216 216 96.707031 216 216c-.132812 119.238281-96.761719 215.867188-216 216zm0 0" fill="#32623f"/><g fill="#818085"><path d="m256 84.6875v-20.6875h-32v20.6875l16 16zm0 0"/><path d="m280 208c0 4.417969-3.582031 8-8 8h-64c-4.417969 0-8-3.582031-8-8v-56h-48v176h48v-56c0-4.417969 3.582031-8 8-8h64c4.417969 0 8 3.582031 8 8v56h48v-176h-48zm0 0"/><path d="m416 256v-32h-20.6875l-16 16 16 16zm0 0"/><path d="m64 224v32h20.6875l16-16-16-16zm0 0"/><path d="m224 395.3125v20.6875h32v-20.6875l-16-16zm0 0"/></g><path d="m240 0c-132.546875 0-240 107.453125-240 240s107.453125 240 240 240 240-107.453125 240-240c-.148438-132.484375-107.515625-239.851562-240-240zm0 464c-123.710938 0-224-100.289062-224-224s100.289062-224 224-224 224 100.289062 224 224c-.140625 123.652344-100.347656 223.859375-224 224zm0 0"/><path d="m240 24c-119.292969 0-216 96.707031-216 216s96.707031 216 216 216 216-96.707031 216-216c-.132812-119.238281-96.761719-215.867188-216-216zm0 416c-110.457031 0-200-89.542969-200-200s89.542969-200 200-200 200 89.542969 200 200c-.125 110.40625-89.59375 199.875-200 200zm0 0"/><path d="m336 136h-64c-4.417969 0-8 3.582031-8 8v56h-48v-56c0-4.417969-3.582031-8-8-8h-64c-4.417969 0-8 3.582031-8 8v192c0 4.417969 3.582031 8 8 8h64c4.417969 0 8-3.582031 8-8v-56h48v56c0 4.417969 3.582031 8 8 8h64c4.417969 0 8-3.582031 8-8v-192c0-4.417969-3.582031-8-8-8zm-8 192h-48v-56c0-4.417969-3.582031-8-8-8h-64c-4.417969 0-8 3.582031-8 8v56h-48v-176h48v56c0 4.417969 3.582031 8 8 8h64c4.417969 0 8-3.582031 8-8v-56h48zm0 0"/><path d="m234.34375 117.65625c3.125 3.121094 8.1875 3.121094 11.3125 0l24-24c1.5-1.5 2.34375-3.535156 2.34375-5.65625v-32c0-4.417969-3.582031-8-8-8h-48c-4.417969 0-8 3.582031-8 8v32c0 2.121094.84375 4.15625 2.34375 5.65625zm-10.34375-53.65625h32v20.6875l-16 16-16-16zm0 0"/><path d="m424 208h-32c-2.121094 0-4.15625.84375-5.65625 2.34375l-24 24c-3.121094 3.125-3.121094 8.1875 0 11.3125l24 24c1.5 1.5 3.535156 2.34375 5.65625 2.34375h32c4.417969 0 8-3.582031 8-8v-48c0-4.417969-3.582031-8-8-8zm-8 48h-20.6875l-16-16 16-16h20.6875zm0 0"/><path d="m245.65625 362.34375c-3.125-3.121094-8.1875-3.121094-11.3125 0l-24 24c-1.5 1.5-2.34375 3.535156-2.34375 5.65625v32c0 4.417969 3.582031 8 8 8h48c4.417969 0 8-3.582031 8-8v-32c0-2.121094-.84375-4.15625-2.34375-5.65625zm10.34375 53.65625h-32v-20.6875l16-16 16 16zm0 0"/><path d="m93.65625 210.34375c-1.5-1.5-3.535156-2.34375-5.65625-2.34375h-32c-4.417969 0-8 3.582031-8 8v48c0 4.417969 3.582031 8 8 8h32c2.121094 0 4.15625-.84375 5.65625-2.34375l24-24c3.121094-3.125 3.121094-8.1875 0-11.3125zm-8.96875 45.65625h-20.6875v-32h20.6875l16 16zm0 0"/></svg>